<?xml version="1.0" encoding="UTF-8" ?>
<svg version="1.1" width="10" height="10" xmlns="http://www.w3.org/2000/svg" shape-rendering="crispEdges">
<rect x="5" y="1" width="1" height="1" fill="#FFFFFF" />
<rect x="6" y="2" width="1" height="1" fill="#FFFFFF" />
<rect x="6" y="3" width="1" height="1" fill="#FFFFFF" />
<rect x="7" y="3" width="1" height="1" fill="#FFFFFF" />
<rect x="1" y="4" width="1" height="1" fill="#FFFFFF" />
<rect x="2" y="4" width="1" height="1" fill="#FFFFFF" />
<rect x="3" y="4" width="1" height="1" fill="#FFFFFF" />
<rect x="4" y="4" width="1" height="1" fill="#FFFFFF" />
<rect x="5" y="4" width="1" height="1" fill="#FFFFFF" />
<rect x="6" y="4" width="1" height="1" fill="#FFFFFF" />
<rect x="7" y="4" width="1" height="1" fill="#FFFFFF" />
<rect x="8" y="4" width="1" height="1" fill="#FFFFFF" />
<rect x="1" y="5" width="1" height="1" fill="#FFFFFF" />
<rect x="2" y="5" width="1" height="1" fill="#FFFFFF" />
<rect x="3" y="5" width="1" height="1" fill="#FFFFFF" />
<rect x="4" y="5" width="1" height="1" fill="#FFFFFF" />
<rect x="5" y="5" width="1" height="1" fill="#FFFFFF" />
<rect x="6" y="5" width="1" height="1" fill="#FFFFFF" />
<rect x="7" y="5" width="1" height="1" fill="#FFFFFF" />
<rect x="8" y="5" width="1" height="1" fill="#FFFFFF" />
<rect x="6" y="6" width="1" height="1" fill="#FFFFFF" />
<rect x="7" y="6" width="1" height="1" fill="#FFFFFF" />
<rect x="6" y="7" width="1" height="1" fill="#FFFFFF" />
<rect x="5" y="8" width="1" height="1" fill="#FFFFFF" />
</svg>